HIERARCHY
ROOT Hips
{
	OFFSET -0.001795 -0.223333 0.028219
	CHANNELS 6 Xposition Yposition Zposition Zrotation Yrotation Xrotation 
	JOINT LeftUpLeg
	{
		OFFSET 0.069520 -0.091406 -0.006815
		CHANNELS 3 Zrotation Yrotation Xrotation
		JOINT LeftLeg
		{
			OFFSET 0.034277 -0.375199 -0.004496
			CHANNELS 3 Zrotation Yrotation Xrotation
			JOINT LeftFoot
			{
				OFFSET -0.013596 -0.397961 -0.043693
				CHANNELS 3 Zrotation Yrotation Xrotation
				JOINT LeftToe
				{
					OFFSET 0.026358 -0.055791 0.119288
					CHANNELS 3 Zrotation Yrotation Xrotation
					End Site
					{
						OFFSET 0.000000 0.000000 0.000000
					}
				}
			}
		}
	}
	JOINT RightUpLeg
	{
		OFFSET -0.067670 -0.090522 -0.004320
		CHANNELS 3 Zrotation Yrotation Xrotation
		JOINT RightLeg
		{
			OFFSET -0.038290 -0.382569 -0.008850
			CHANNELS 3 Zrotation Yrotation Xrotation
			JOINT RightFoot
			{
				OFFSET 0.015774 -0.398415 -0.042312
				CHANNELS 3 Zrotation Yrotation Xrotation
				JOINT RightToe
				{
					OFFSET -0.025372 -0.048144 0.123348
					CHANNELS 3 Zrotation Yrotation Xrotation
					End Site
					{
						OFFSET 0.000000 0.000000 0.000000
					}
				}
			}
		}
	}
	JOINT Spine
	{
		OFFSET -0.002533 0.108963 -0.026696
		CHANNELS 3 Zrotation Yrotation Xrotation
		JOINT Spine1
		{
			OFFSET 0.005487 0.135180 0.001092
			CHANNELS 3 Zrotation Yrotation Xrotation
			JOINT Spine2
			{
				OFFSET 0.001457 0.052922 0.025425
				CHANNELS 3 Zrotation Yrotation Xrotation
				JOINT Neck
				{
					OFFSET -0.002778 0.213870 -0.042857
					CHANNELS 3 Zrotation Yrotation Xrotation
					JOINT Head
					{
						OFFSET 0.005152 0.064970 0.051349
						CHANNELS 3 Zrotation Yrotation Xrotation
						End Site
						{
							OFFSET 0.000000 0.000000 0.000000
						}
					}
				}
				JOINT LeftShoulder
				{
					OFFSET 0.078845 0.121749 -0.034090
					CHANNELS 3 Zrotation Yrotation Xrotation
					JOINT LeftArm
					{
						OFFSET 0.090977 0.030469 -0.008868
						CHANNELS 3 Zrotation Yrotation Xrotation
						JOINT LeftForeArm
						{
							OFFSET 0.259612 -0.012772 -0.027456
							CHANNELS 3 Zrotation Yrotation Xrotation
							JOINT LeftHand
							{
								OFFSET 0.249234 0.008986 -0.001171
								CHANNELS 3 Zrotation Yrotation Xrotation
								End Site
								{
									OFFSET 0.000000 0.000000 0.000000
								}
							}
						}
					}
				}
				JOINT RightShoulder
				{
					OFFSET -0.081759 0.118833 -0.038615
					CHANNELS 3 Zrotation Yrotation Xrotation
					JOINT RightArm
					{
						OFFSET -0.096012 0.032551 -0.009143
						CHANNELS 3 Zrotation Yrotation Xrotation
						JOINT RightForeArm
						{
							OFFSET -0.253742 -0.013329 -0.021401
							CHANNELS 3 Zrotation Yrotation Xrotation
							JOINT RightHand
							{
								OFFSET -0.255298 0.007772 -0.005559
								CHANNELS 3 Zrotation Yrotation Xrotation
								End Site
								{
									OFFSET 0.000000 0.000000 0.000000
								}
							}
						}
					}
				}
			}
		}
	}
}
MOTION
Frames: 12
Frame Time: 0.050000
0.000000 0.912286 0.000000 0.137160 10.707142 -0.643256 3.520709 0.081623 4.247640 -3.009649 -0.560247 22.765002 7.630365 14.468659 -2.045914 0.000000 0.000000 0.000000 1.617475 1.652891 -16.226161 5.447582 -1.335209 17.689975 -9.572321 -23.804677 -0.488879 0.000000 0.000000 0.000000 0.272275 -0.407567 8.195903 2.951940 -1.544984 1.122037 -1.981369 -4.339046 6.765581 4.936894 -1.459352 -18.606609 0.000000 0.000000 0.000000 -18.957082 -8.998134 2.676115 -52.104480 -12.089083 -1.172754 -2.846019 -24.950351 1.548588 0.000000 0.000000 0.000000 18.008820 11.255057 4.767470 54.980325 15.541821 1.478627 -1.881444 22.054290 0.466920 0.000000 0.000000 0.000000 
-0.006296 0.918403 0.038855 -0.005520 7.191592 0.061663 5.252990 -0.124368 0.607935 -6.071498 0.422919 30.322122 6.818453 14.351661 2.819916 0.000000 0.000000 0.000000 4.064871 1.823181 -14.476245 4.373086 -0.865183 19.079988 -9.229539 -23.177976 -2.080437 0.000000 0.000000 0.000000 0.991743 -0.319185 5.998895 3.036887 -1.654170 2.083069 -2.531980 -2.615067 6.368700 3.928056 -0.572032 -20.984542 0.000000 0.000000 0.000000 -17.401210 -7.731357 2.037006 -53.643866 -12.658339 -0.890551 -4.275030 -24.001535 1.780505 0.000000 0.000000 0.000000 16.101727 9.757537 3.892733 56.656925 15.276790 1.549585 -1.211358 23.310358 0.625206 0.000000 0.000000 0.000000 
-0.012624 0.923948 0.076442 -0.039738 2.871403 -1.351324 6.136119 -0.271420 -4.818441 -7.733752 1.739858 40.437476 8.290590 17.642946 8.287713 0.000000 0.000000 0.000000 5.367022 1.313404 -9.534433 4.003507 -0.483796 15.975299 -8.764515 -21.728312 -2.303617 0.000000 0.000000 0.000000 1.865566 -0.465181 7.833564 1.496897 -0.641928 -1.528614 -1.447218 -1.690788 9.766201 2.214255 0.043320 -19.684082 0.000000 0.000000 0.000000 -19.043384 -6.293147 1.716926 -52.776484 -12.216764 -1.508181 -3.279800 -24.042512 1.687135 0.000000 0.000000 0.000000 14.045430 9.822740 3.638551 56.417209 14.783843 0.960024 2.086411 25.754855 1.360047 0.000000 0.000000 0.000000 
-0.018918 0.927640 0.113667 0.694880 -1.040466 -2.804967 5.694994 -0.382342 -8.929082 -8.998287 3.288957 42.170333 9.476234 19.393312 2.947289 0.000000 0.000000 0.000000 5.604321 0.382667 -3.203056 2.698744 -0.057619 12.657622 -7.043242 -17.134878 -1.481060 0.000000 0.000000 0.000000 1.075320 -0.400157 8.197899 0.692559 -0.320005 -0.552844 -0.493786 0.038775 9.437270 2.977810 -0.468592 -19.491965 0.000000 0.000000 0.000000 -19.561958 -5.901366 1.615299 -52.253169 -11.472559 -1.837075 -4.235525 -23.942080 1.894499 0.000000 0.000000 0.000000 13.725783 10.563966 3.853905 55.539445 14.859602 0.992644 1.634641 29.009130 1.406707 0.000000 0.000000 0.000000 
-0.025411 0.929753 0.151154 1.445895 -6.053584 -3.649183 3.663978 -0.698146 -13.398493 -7.461142 3.079390 35.809155 10.163490 20.773230 0.642334 0.000000 0.000000 0.000000 5.394488 -0.422279 2.220774 0.828234 0.330123 10.039238 -4.995981 -11.525772 -1.976714 0.000000 0.000000 0.000000 0.790921 -0.407318 9.768329 0.016103 0.000464 -2.017647 -0.140163 3.054909 10.287869 3.064760 -0.494752 -19.387372 0.000000 0.000000 0.000000 -20.568037 -6.412229 1.832696 -51.068639 -10.704093 -2.224542 -4.919187 -24.991072 2.125649 0.000000 0.000000 0.000000 14.410132 9.776109 3.534657 54.583503 15.970225 1.373904 2.487030 30.158945 1.709865 0.000000 0.000000 0.000000 
-0.032180 0.929299 0.190216 1.433751 -9.740606 -4.182819 2.219211 -0.899545 -15.015996 -4.163511 1.335656 23.945254 8.281696 17.155805 1.445724 0.000000 0.000000 0.000000 5.571004 -0.907457 5.851568 -0.065349 0.474013 9.037127 -3.694672 -7.355912 -3.306676 0.000000 0.000000 0.000000 0.876842 -0.398414 10.330594 -0.583209 0.251960 -1.788774 0.571551 3.499321 9.621512 3.083043 -0.648921 -19.761692 0.000000 0.000000 0.000000 -20.336718 -6.225622 2.160397 -52.455957 -10.819648 -2.245594 -3.995914 -24.250713 1.930228 0.000000 0.000000 0.000000 13.068108 10.084582 3.324521 55.781583 16.350813 1.699551 2.454963 31.106780 1.640070 0.000000 0.000000 0.000000 
-0.039170 0.925787 0.231519 1.363022 -12.686320 -4.570690 0.656420 -1.057491 -14.661438 -0.781734 0.034980 9.690199 4.148934 9.265266 4.946126 0.000000 0.000000 0.000000 5.504850 -1.265858 9.156104 -0.784772 0.652427 9.512990 -2.853574 -4.913237 -3.338289 0.000000 0.000000 0.000000 1.098843 -0.397543 10.673839 -1.620085 0.679684 -3.159802 0.888007 4.131071 11.130722 3.680673 -1.202328 -19.309449 0.000000 0.000000 0.000000 -19.211327 -6.285365 2.557350 -53.281629 -12.224353 -1.831660 -2.030993 -23.293074 1.515583 0.000000 0.000000 0.000000 13.288296 9.126797 2.680340 56.515051 16.256796 1.538420 4.163764 31.798999 2.081234 0.000000 0.000000 0.000000 
-0.046077 0.920549 0.275518 1.516003 -16.263397 -5.078233 -0.255797 -1.097136 -14.011569 1.840380 -0.381095 3.645197 0.495043 2.511881 6.902196 0.000000 0.000000 0.000000 4.736947 -1.421570 12.537191 -1.367219 0.917729 11.127428 -2.301303 -2.301889 -4.660124 0.000000 0.000000 0.000000 0.334636 -0.290420 10.284825 -1.851156 0.814239 -1.435605 0.858410 5.468817 9.955225 5.512777 -2.382967 -18.600410 0.000000 0.000000 0.000000 -19.155482 -7.052358 3.038282 -52.957971 -13.006961 -1.385580 -0.701133 -22.763073 1.210352 0.000000 0.000000 0.000000 14.693666 8.931937 2.410472 56.931642 15.324471 1.256240 4.216162 30.751856 1.968792 0.000000 0.000000 0.000000 
-0.053435 0.917938 0.322147 1.789603 -20.059664 -6.047702 -1.063441 -1.096294 -12.875144 1.678309 -0.393404 7.531275 1.999085 5.063775 7.560590 0.000000 0.000000 0.000000 3.409961 -1.217014 14.509770 -2.108401 1.489119 14.702782 -1.271877 -0.557121 -3.188303 0.000000 0.000000 0.000000 -1.147780 -0.132996 9.409557 -2.001702 0.846603 -1.715618 1.598588 5.556064 11.827854 4.520399 -2.167562 -17.919304 0.000000 0.000000 0.000000 -19.798578 -6.708237 3.569986 -52.823481 -14.520450 -1.043710 1.307100 -22.236462 0.903170 0.000000 0.000000 0.000000 15.389354 10.365047 2.592227 57.185043 13.966356 0.492046 2.621432 30.268746 1.400604 0.000000 0.000000 0.000000 
-0.060903 0.920981 0.368788 2.065583 -21.697006 -6.738167 -2.411738 -1.103146 -10.385880 1.739139 -0.375994 9.937516 1.570653 4.106048 6.594656 0.000000 0.000000 0.000000 1.581088 -0.796637 12.501067 -0.308689 2.364595 24.059904 -0.497281 -0.075221 -1.397222 0.000000 0.000000 0.000000 -2.434245 -0.019231 9.152447 -1.453308 0.509641 -3.046729 1.691440 4.260203 12.916856 4.521594 -2.510683 -17.717260 0.000000 0.000000 0.000000 -19.401957 -6.815558 4.322676 -52.946873 -15.830258 -0.713447 2.007821 -21.648398 0.843531 0.000000 0.000000 0.000000 15.332938 9.139752 1.475579 58.716500 11.325672 -0.919981 4.487137 29.108281 1.635449 0.000000 0.000000 0.000000 
-0.068678 0.927816 0.411621 2.456736 -26.165085 -7.219208 -2.818944 -0.882882 -7.329746 0.396863 0.052284 10.147198 2.937838 6.431865 6.163669 0.000000 0.000000 0.000000 -1.470490 -0.123526 6.193666 3.707183 4.022827 38.793903 0.244704 -3.666457 6.043576 0.000000 0.000000 0.000000 -3.080780 0.051589 8.412003 -1.514828 0.549801 -2.179268 1.598251 3.148946 12.466801 4.175436 -2.741929 -16.891223 0.000000 0.000000 0.000000 -18.844530 -6.556771 5.046575 -52.988907 -17.579630 -0.034188 2.551831 -21.817209 0.868569 0.000000 0.000000 0.000000 14.652002 9.652208 0.977900 59.776665 9.461421 -1.856106 4.790080 29.042970 1.413549 0.000000 0.000000 0.000000 
-0.077032 0.933054 0.448015 2.077714 -28.620579 -6.607497 -3.104770 -0.533840 -3.573046 0.440925 0.007560 7.796378 3.854497 8.210472 5.220587 0.000000 0.000000 0.000000 -3.193435 0.325907 -1.609067 9.156721 4.245348 49.553712 -3.616046 -13.186233 11.420609 0.000000 0.000000 0.000000 -2.879630 0.055845 8.279555 -1.645696 0.600511 -2.162587 1.405751 0.196626 12.382189 2.150324 -1.968086 -16.789981 0.000000 0.000000 0.000000 -18.108088 -7.924998 6.741196 -50.978582 -20.012516 0.826943 3.246342 -21.185381 0.748785 0.000000 0.000000 0.000000 14.903232 9.728387 -0.025072 59.911957 7.325065 -2.846196 6.401561 29.155666 1.423417 0.000000 0.000000 0.000000 
